<svg width="632" height="317" viewBox="0 0 632 317" fill="none" xmlns="http://www.w3.org/2000/svg">
<g clip-path="url(#clip0_2316_2)">
<mask id="mask0_2316_2" style="mask-type:luminance" maskUnits="userSpaceOnUse" x="0" y="0" width="632" height="317">
<path d="M631.348 0H0V316.211H631.348V0Z" fill="white"/>
</mask>
<g mask="url(#mask0_2316_2)">
<path d="M132.91 289.453V316.211H83.7891V289.453H93.5547V201.758H83.7891V175H132.91V201.758H123.145V289.453H132.91Z" fill="#35FFBD"/>
<path d="M0 316.211V175H29.5898V289.453H70.9961V316.211H0Z" fill="#35FFBD"/>
<path d="M98.2422 141.211V0.000244141H127.832V114.453H169.238V141.211H98.2422Z" fill="#35FFBD"/>
<path d="M85.7422 82.4221V141.211H19.5312L0 121.68V0.000244141H60.5469L80.5664 18.6526V57.5198L66.6992 68.6526L85.7422 82.4221ZM56.0547 114.453V82.4221H29.5898V114.453H56.0547ZM51.2695 56.0549V26.8557H29.5898V56.0549H51.2695Z" fill="#35FFBD"/>
<path d="M427.539 141.211H399.053C402.278 137.317 407.425 135.962 410.182 130.892C413.596 124.604 415.115 115.283 419.337 109.928C421.615 107.039 424.623 105.461 427.539 103.728V141.211ZM454.199 26.8555H427.539V59.7285C426.772 60.4176 426.042 61.1786 425.37 62.0459C425.061 62.4403 425.602 67.6777 425.114 67.7549C424.679 67.8194 424.668 61.8966 424.277 61.8955C422.025 61.8907 421.357 67.8481 420.081 69.6172C418.88 71.2882 415.051 70.5424 413.955 73.5137C412.597 77.1832 413.689 83.5835 411.608 86.8037C409.586 89.9354 404.926 88.9169 402.797 91.752C401.527 93.4372 401.607 99.2966 399.997 100.342C399.405 100.727 398.6 100.403 397.754 99.9268V26.8555H370.117V0H454.199V26.8555Z" fill="#35FFBD"/>
<path d="M628.613 89.7461H612.598L631.348 141.211H601.66L584.082 90.1367H576.27V141.211H546.68V74.627C547.487 73.8852 548.202 73.145 548.58 72.4053C551.219 67.2611 551.28 62.1305 553.886 56.9863C556.496 51.8422 561.655 46.6793 564.253 41.5352C566.846 36.3912 566.858 31.3162 569.464 26.1699C569.064 26.1669 570.444 25.2132 570.043 25.2109C569.643 25.2068 568.28 26.99 567.878 26.9854C567.475 26.9878 564.334 31.5475 562.337 34.2041C560.335 36.8637 555.969 39.2382 553.954 41.8955C551.942 44.5527 552.269 47.5095 550.218 50.1621C549.72 50.8063 547.872 51.2284 546.68 51.7598V19.9219L568.164 0H628.613V89.7461ZM576.27 63.6719H599.023V26.8555H576.27V63.6719Z" fill="#35FFBD"/>
<path d="M534.766 26.8555H495.508V54.1016H532.812V68.2422C529.519 71.0817 524.787 73.5561 522.097 76.4863C520.913 77.7759 520.141 79.1161 519.512 80.4688H495.898V113.209C495.602 113.666 495.296 114.122 494.971 114.574C491.642 119.2 486.377 123.885 484.927 128.67C484.879 128.827 487.234 129.076 487.075 129.258C486.932 129.423 484.695 128.989 484.501 129.145C484.293 129.31 485.615 130.47 485.398 130.588C480.593 133.174 475.472 135.029 473.027 137.792C472.039 138.91 471.543 140.054 471.256 141.211H466.211V37.5283C467.048 35.4599 467.918 33.4792 468.898 31.7168C473.101 24.1505 479.622 19.8277 484.244 12.8232C486.516 9.38063 487.846 4.6454 489.246 0H534.766V26.8555ZM535.742 114.453V141.211H502.947C503.473 139.9 504.142 138.601 505.295 137.363C507.967 134.489 513.237 132.26 517.312 129.472C517.349 128.752 517.643 127.264 517.559 126.482C517.477 125.741 514.702 125.602 514.764 124.835C514.83 124.033 517.633 123.019 518.121 122.224C519.687 119.67 519.989 117.044 520.932 114.453H535.742ZM474.322 0C472.87 3.92078 471.849 8.67659 469.793 11.4365C468.796 12.7746 467.546 13.6523 466.211 14.376V0H474.322Z" fill="#35FFBD"/>
<path d="M415.137 231.219C414.671 231.953 414.24 232.684 413.869 233.413C412.634 235.831 414.161 238.177 413.154 240.599C412.151 243.016 408.59 245.563 407.568 247.983C406.545 250.406 408.027 252.77 406.742 255.192C405.049 258.386 402.062 261.563 399.557 264.746H399.121L399.26 265.126C398.32 266.34 397.461 267.554 396.781 268.771C394.25 273.305 394.196 277.889 391.617 282.425C389.038 286.958 384.099 295.229 384.476 295.287C384.856 295.343 383.825 297.149 384.201 297.21C384.578 297.261 384.653 296.108 385.029 296.163C389.137 292.033 395.32 288.528 399.432 284.397C401.308 282.515 402.738 280.512 404.132 278.502L417.871 316.211H388.184L370.605 265.137H362.793V316.211H333.203V231.084C336.037 229.136 339.671 228.453 341.785 225.409C342.516 224.359 341.757 219.037 342.739 218.394C343.715 217.755 346.411 221.828 347.153 220.793C351.636 214.518 353.666 204.157 358.104 197.801C362.541 191.442 369.396 189.084 373.874 182.792C374.499 181.91 373.307 176.517 374.102 175.828C374.923 175.123 376.48 180.052 377.262 179.888C378.885 179.547 379.824 177.297 380.612 175H415.137V231.219ZM362.793 238.672H385.547V201.855H362.793V238.672Z" fill="#35FFBD"/>
<path d="M512.402 197.363V296.68L492.578 316.211H428.906V253.086C430.252 252.435 431.651 251.797 432.373 251.005C433.693 249.558 432.682 247.701 433.844 246.233C436.186 243.284 440.846 240.647 443.135 237.69C445.417 234.729 445.3 231.474 447.489 228.506C449.685 225.535 454.223 222.795 456.283 219.812C457.871 217.517 456.858 215.055 458.246 212.741C458.322 212.614 458.406 212.488 458.496 212.361V289.453H482.715V201.855H465.561C465.62 200.849 465.754 199.845 466.359 198.858C466.78 198.179 469.676 197.691 470.187 197.007C470.693 196.334 468.918 195.313 469.488 194.645C470.063 193.974 472.89 193.762 473.507 193.105C475.319 191.181 475.695 188.653 477.911 186.735C480.212 184.749 484.552 183.052 485.415 181.024C486.173 179.243 483.481 178.136 481.751 176.283C481.362 175.867 481.181 175.437 481.151 175H489.648L512.402 197.363ZM447.73 175C447.104 176.722 446.826 178.478 446.029 180.178C444.725 182.962 441.43 186.168 441.467 189.132C441.477 189.789 444.13 190.036 443.981 190.812C443.834 191.58 440.971 192.589 440.618 193.312C440.2 194.177 441.732 195.41 440.923 195.984C436.62 199.029 432.1 201.78 428.906 204.765V175H447.73Z" fill="#35FFBD"/>
<path d="M320.02 206.729C316.696 208.599 313.027 209.501 311.763 215.123C305.29 218.281 303.713 230.14 299.458 237.96C295.253 245.689 289.381 248.625 282.495 250.857C282.012 251.017 283.37 256.063 282.931 257.279C282.579 258.254 279.066 256.675 278.669 257.444C276.877 260.929 276.008 265.339 275.207 269.824H265.234V291.939C262.554 294.217 259.558 296.131 256.647 298.479C256.257 298.795 257.753 303.844 257.402 304.329C257.053 304.8 254.24 301.422 253.924 301.919C251.127 306.36 248.626 311.217 246.221 316.211H235.547V213.104C238.865 211.077 240.604 207.564 242.683 204.714C244.781 201.833 247.628 199.094 248.408 195.005C248.716 193.401 248.124 191.232 249.125 189.764C250.075 188.368 252.451 188.005 253.426 186.693C254.32 185.491 254.278 183.348 255.36 182.291C256.461 181.219 258.739 181.153 259.483 179.852C260.285 178.449 260.463 176.697 260.745 175H320.02V206.729ZM320.02 316.211H290.43V296.549C292.904 295.112 295.288 293.475 297.357 291.154C299.55 288.699 299.078 281.62 300.922 278.359C302.726 275.166 307.2 275.316 309.062 272.249C309.806 271.016 307.817 265.929 308.606 264.413C309.638 262.438 311.683 265.314 312.437 265.369C315.793 265.601 316.946 259.131 318.564 256.545C318.947 255.936 319.45 255.443 320.02 255.003V316.211ZM265.234 242.969H290.43V201.855H265.234V242.969Z" fill="#35FFBD"/>
<path d="M222.754 197.363L209.23 226.882C206.893 229.253 204.341 231.582 203.135 234.956C201.455 239.658 200.448 244.803 197.829 249.138C195.247 253.415 191.117 256.747 188.638 261.062C186.782 264.289 186.239 268.348 184.358 271.56C182.478 274.772 179.255 277.144 177.44 280.397C174.46 285.745 172.877 291.937 169.938 297.311C166.999 302.682 162.683 307.277 159.74 312.649C159.978 312.807 172.942 299.387 178.757 292.314C179.554 291.346 180.372 290.394 181.202 289.453H221.289V316.211H145.703V292.773L188.379 201.855H148.633V175H213.965L222.754 197.363Z" fill="#35FFBD"/>
<path d="M356.445 41.9922H329.59V26.9531H310.254V45.4102L357.324 80.7617V141.211H279.688V138.726C279.956 138.226 280.212 137.719 280.448 137.202C282.679 132.328 283.309 126.691 285.33 121.71C287.35 116.733 291.253 107.371 291.114 107.214C290.972 107.063 285.038 114.615 281.644 118.558C281.026 119.275 280.368 119.955 279.688 120.614V97.2656H309.277V114.453H327.637V91.9922L280.664 56.543V51.8027C280.675 51.7894 280.687 51.7772 280.697 51.7637C281.765 50.3898 281.932 48.3137 282.701 46.9238C283.585 45.3268 285.164 44.0249 285.342 42.4443C285.66 39.5893 285.223 36.9106 286.009 34.7051C286.943 32.0808 289.037 30.4241 290.487 28.4824C291.998 26.4608 293.103 23.8583 295.008 22.2949C296.834 20.7946 299.416 20.3516 301.448 19.0137C301.841 17.4643 301.465 15.379 301.981 13.917C302.51 12.4227 304.046 11.3751 304.667 9.94629C305.292 8.50149 305.033 6.59916 305.715 5.19336C306.397 3.78585 308.001 2.90993 308.696 1.5127C308.875 1.15529 308.565 0.510829 308.483 0H356.445V41.9922Z" fill="#35FFBD"/>
<path d="M266.504 22.4082C265.165 24.3727 263.361 26.028 262.229 28.1396C260.938 30.5534 260.54 33.5479 259.244 35.959C257.951 38.3732 255.772 40.1862 254.418 42.5527C253.492 44.1639 253.279 46.3994 252.207 47.958C251.143 49.4999 249.257 50.3187 248.209 51.8574C247.134 53.4354 246.946 55.6677 246.062 57.2949C245.137 58.9939 243.428 60.307 242.9 62.1162C242.107 64.8431 242.256 67.8095 241.343 70.3994C240.404 73.0567 238.436 75.232 237.312 77.7656C236.19 80.3027 235.857 83.3144 234.492 85.7451C233.162 88.1125 230.879 89.7686 229.267 92.0527C228.697 92.8563 228.331 93.8289 227.989 94.8242H211.719V141.211H182.031V22.3633L204.785 0H266.504V22.4082ZM266.504 136.793C265.096 138.497 262.894 139.573 261.406 141.211H236.914V96.8311C237.955 95.707 238.986 94.5794 240.083 93.6035C242.727 91.2493 245.86 89.6582 248.314 87.0537C250.773 84.4446 252.492 80.8812 254.876 78.1709C257.259 75.4665 260.311 73.6084 262.739 70.9512C263.663 69.9388 263.994 68.0769 264.982 67.1396C265.407 66.7359 265.948 66.5141 266.504 66.3164V136.793ZM211.719 67.9688H236.914V26.8555H211.719V67.9688Z" fill="#35FFBD"/>
</g>
</g>
<defs>
<clipPath id="clip0_2316_2">
<rect width="632" height="317" fill="white"/>
</clipPath>
</defs>
</svg>
